<svg width="174" height="138" viewBox="0 0 174 138" fill="none" xmlns="http://www.w3.org/2000/svg">
<path d="M68.6152 28.6378C71.7951 36.8528 66.1326 46.7021 58.9034 49.5004C51.6742 52.2987 41.1535 48.7137 37.9736 40.4986C34.7937 32.2836 38.9151 20.1596 46.1443 17.3613C55.784 13.6299 65.4353 20.4227 68.6152 28.6378Z" fill="#D1D5DB"/>
<path d="M72.6916 28.2843C70.9775 36.9249 78.2552 45.6489 85.8589 47.1574C93.4627 48.6658 103.207 43.3185 104.921 34.6779C106.635 26.0373 100.482 14.8067 92.8787 13.2983C82.7396 11.2869 74.4057 19.6437 72.6916 28.2843Z" fill="#D1D5DB"/>
<path d="M147.435 91.2798C147.435 120.349 119.233 131.155 80.7633 131.155C42.294 131.155 14.73 120.349 14.73 91.2798C14.73 57.4656 42.294 27.4795 80.7633 27.4795C119.233 27.4795 147.435 54.9136 147.435 91.2798Z" fill="#F3F4F6"/>
<path d="M129.331 90.9445C129.331 112.255 109.572 120.176 82.6206 120.176C55.6687 120.176 36.3572 112.255 36.3572 90.9445C36.3572 66.1561 55.6687 44.1738 82.6206 44.1738C109.572 44.1738 129.331 64.2852 129.331 90.9445Z" fill="#F9FAFB"/>
<path d="M80.0768 87.9715C80.0768 95.0187 75.7796 102.75 69.7744 102.75C63.7693 102.75 54.0686 97.0076 54.0686 86.4805C54.0686 76.5915 64.5482 73.0744 75.3772 74.8803C82.0143 75.9871 80.0768 80.9243 80.0768 87.9715Z" fill="#D1D5DB"/>
<path d="M75.0544 87.2597C75.0544 88.3168 74.7523 89.1737 73.2421 89.1737C71.732 89.1737 71.4299 88.3168 71.4299 87.2597C71.4299 86.2026 72.034 85.3457 73.2421 85.3457C74.4503 85.3457 75.0544 86.2026 75.0544 87.2597Z" fill="#F3F4F6"/>
<path d="M97.8473 87.9715C97.8473 95.0187 101.83 102.75 107.396 102.75C112.962 102.75 121.954 97.0076 121.954 86.4805C121.954 76.5915 112.24 73.0744 102.203 74.8803C96.0516 75.9871 97.8473 80.9243 97.8473 87.9715Z" fill="#D1D5DB"/>
<path d="M102.503 87.2597C102.503 88.3168 102.783 89.1737 104.183 89.1737C105.583 89.1737 105.863 88.3168 105.863 87.2597C105.863 86.2026 105.303 85.3457 104.183 85.3457C103.063 85.3457 102.503 86.2026 102.503 87.2597Z" fill="#F3F4F6"/>
<path d="M82.2827 98.236C81.9364 97.7323 81.2473 97.6047 80.7436 97.951C80.2398 98.2973 80.1122 98.9864 80.4585 99.4901L82.2827 98.236ZM89.4874 96.6494L90.5341 96.2896C90.3804 95.8427 89.96 95.5426 89.4874 95.5426C89.0148 95.5426 88.5943 95.8427 88.4407 96.2896L89.4874 96.6494ZM98.5162 99.4901C98.8625 98.9864 98.7349 98.2973 98.2312 97.951C97.7275 97.6047 97.0384 97.7323 96.6921 98.236L98.5162 99.4901ZM80.4585 99.4901C80.7913 99.9742 81.4004 100.629 82.2187 101.17C83.0438 101.715 84.1411 102.184 85.429 102.184V99.9699C84.6877 99.9699 84.0094 99.7001 83.4395 99.3233C82.8627 98.942 82.4572 98.4898 82.2827 98.236L80.4585 99.4901ZM85.429 102.184C86.9888 102.184 88.1641 101.073 88.9117 100.084C89.6965 99.0464 90.2526 97.8282 90.5341 97.0092L88.4407 96.2896C88.2149 96.9464 87.7564 97.9418 87.1461 98.7489C86.4986 99.6051 85.8983 99.9699 85.429 99.9699V102.184ZM88.4407 97.0092C88.7222 97.8282 89.2783 99.0464 90.063 100.084C90.8106 101.073 91.9859 102.184 93.5457 102.184V99.9699C93.0764 99.9699 92.4762 99.6051 91.8287 98.7489C91.2183 97.9418 90.7599 96.9464 90.5341 96.2896L88.4407 97.0092ZM93.5457 102.184C94.8337 102.184 95.9309 101.715 96.7561 101.17C97.5743 100.629 98.1834 99.9742 98.5162 99.4901L96.6921 98.236C96.5176 98.4898 96.112 98.942 95.5352 99.3233C94.9653 99.7001 94.287 99.9699 93.5457 99.9699V102.184Z" fill="#D1D5DB"/>
<path d="M96.2447 95.512C96.2447 96.5496 91.5029 97.8735 89.9982 98.2675C89.7008 98.3453 89.3907 98.3453 89.0933 98.2675C87.5885 97.8735 82.8467 96.5496 82.8467 95.512C82.8467 94.2787 86.5507 92.96 89.5457 92.96C92.5408 92.96 96.2447 94.2787 96.2447 95.512Z" fill="#D1D5DB"/>
<path d="M90.5287 61.6521C62.0549 63.4422 55.1101 54.3531 54.0684 50.518L70.0415 41.6107L88.098 38.2705L113.099 51.2603C111.595 54.3531 108.039 60.5512 90.5287 61.6521Z" fill="#D1D5DB"/>
<path fill-rule="evenodd" clip-rule="evenodd" d="M84.2173 131.247C120.695 131.247 147.437 120.441 147.437 91.3716C147.437 55.0054 120.695 27.5713 84.2173 27.5713C47.7392 27.5713 21.6021 57.5574 21.6021 91.3716C21.6021 120.441 47.7392 131.247 84.2173 131.247ZM82.7835 120.082C109.616 120.082 129.287 112.169 129.287 90.8813C129.287 64.2501 109.616 44.1598 82.7835 44.1598C55.9511 44.1598 36.7252 66.1189 36.7252 90.8813C36.7252 112.169 55.9511 120.082 82.7835 120.082Z" fill="#F3F4F6"/>
<path fill-rule="evenodd" clip-rule="evenodd" d="M6.67584 67.474C10.7211 62.9444 18.0123 63.6957 21.0488 68.9552L25.4959 76.6578C28.5325 81.9172 25.5376 88.6072 19.5922 89.8457L17.6586 90.2486C17.5479 90.2716 17.4371 90.2925 17.3263 90.3113C17.2846 90.4262 17.2316 90.538 17.1694 90.6449C15.4087 93.6717 14.5705 100.645 23.2459 108.715C31.6989 116.578 39.0063 117.15 42.37 116.31C42.6085 116.251 42.8564 116.234 43.0955 116.264L43.5358 115.391C46.2709 109.969 53.5081 108.808 57.8024 113.102L64.0916 119.391C68.3859 123.685 67.2245 130.923 61.8023 133.658L61.3955 133.863C61.2841 134.039 61.1252 134.193 60.9187 134.305C50.2092 140.117 26.1346 137.308 12.9659 118.995C-3.51637 96.0742 -1.8559 76.5859 4.64289 69.6322C4.75366 69.5137 4.8798 69.4227 5.01476 69.358C5.12523 69.2183 5.24038 69.0813 5.36018 68.9472L6.67584 67.474Z" fill="#D1D5DB"/>
<path d="M134.22 25.743C135.987 21.7243 137.557 20.9483 139.976 20.5853C141.847 20.2981 143.385 19.8649 144.028 18.4035C144.671 16.9422 143.917 15.501 142.489 14.8728C141.094 14.2593 139.361 14.6859 138.597 16.3319L133.316 14.0092C135.53 9.15624 140.114 8.55653 144.465 10.4702C149.281 12.5884 151.746 16.4471 149.89 20.6651C148.663 23.4549 146.409 24.5246 143.6 24.8743C141.339 25.1482 140.037 25.7648 139.102 27.8904L138.897 28.3553L134.015 26.2079L134.22 25.743ZM133.165 34.9902C131.504 34.2598 130.727 32.3323 131.505 30.6531C132.188 29.0111 134.134 28.2816 135.794 29.012C137.389 29.7132 138.199 31.6552 137.517 33.2972C136.738 34.9764 134.759 35.6914 133.165 34.9902Z" fill="#D1D5DB"/>
<path d="M150.186 37.4139C152.521 35.0041 153.853 34.8655 155.682 35.2485C157.099 35.5399 158.317 35.6384 159.166 34.7621C160.015 33.8859 159.858 32.6528 159.002 31.823C158.165 31.0125 156.81 30.8574 155.825 31.8339L152.658 28.7656C155.535 25.8766 158.979 26.6656 161.588 29.1936C164.476 31.9917 165.216 35.412 162.765 37.9413C161.144 39.6142 159.245 39.7814 157.138 39.2851C155.446 38.8803 154.349 38.976 153.114 40.2506L152.844 40.5294L149.916 37.6927L150.186 37.4139ZM146.972 43.7598C145.976 42.7949 145.932 41.2071 146.936 40.2107C147.861 39.2156 149.45 39.2101 150.445 40.175C151.401 41.1013 151.466 42.7084 150.54 43.7035C149.536 44.6999 147.928 44.686 146.972 43.7598Z" fill="#D1D5DB"/>
</svg>
