<?xml version="1.0" encoding="UTF-8"?>
<svg xmlns="http://www.w3.org/2000/svg" version="1.1" xmlns:xlink="http://www.w3.org/1999/xlink" viewBox="0 0 2000 2000">
  <defs>
    <clipPath id="clippath">
      <circle cx="1000" cy="1000" r="682.364" style="fill: none;"/>
    </clipPath>
  </defs>
  <!-- Generator: Adobe Illustrator 28.7.7, SVG Export Plug-In . SVG Version: 1.2.0 Build 194)  -->
  <g>
    <g id="Design">
      <rect id="Baclground" width="2000" height="2000" style="fill: #fff;"/>
      <circle cx="1000" cy="1000" r="682.364" style="fill: #fee;"/>
      <g style="clip-path: url(#clippath);">
        <g>
          <path d="M1247.121,1682.364h-508.013c-.037-.913.33-1.614,1.096-2.11,2.949-1.513,6.153-1.201,9.287-1.201,162.416-.024,324.831-.023,487.247,0,3.134,0,6.338-.317,9.294,1.19.766.5,1.128,1.209,1.088,2.123Z" style="fill: #c4c1bb;"/>
          <path d="M586.199,1682.364c.031-6.774-1.059-13.61,1.117-20.266,3.085,3.353,1.592,7.516,1.977,11.339.296,2.936.049,6.182,4.558,5.736,43.509-.242,87.004-.073,130.498-.091,2.513-.001,5.064-.075,7.39,1.182.771.489,1.12,1.191,1.05,2.1h-146.591Z" style="fill: #c4c1bb;"/>
          <path d="M1413.824,1680.938c.036.475.072.951.108,1.426h-161.755c-.066-.911.289-1.607,1.063-2.091,2.317-1.262,4.865-1.189,7.375-1.191,48.488-.034,96.976-.048,145.464-.002,1.051,0,2.098.051,3.137.22,1.687.121,3.32.398,4.608,1.638Z" style="fill: #c4c1bb;"/>
          <path d="M732.79,1682.364c.007-.326.016-.651.026-.977.132-.243.264-.487.394-.732,1.531-.98,3.153-.925,4.817-.425.524.244.868.651,1.056,1.194.017.313.026.626.026.94h-6.319Z" style="fill: #acabab;"/>
          <path d="M1252.15,1681.419c.015.315.024.63.026.945h-5.055c-.006-.306,0-.612.021-.918.093-.244.185-.489.277-.735,1.177-.824,2.448-.831,3.767-.433.5.228.813.616.964,1.14Z" style="fill: #abaaaa;"/>
          <path d="M1413.824,1680.938c-1.213.015-2.426.03-3.639.044-3.08-7.124-2.39-14.803-2.914-22.232-.62-8.801-.176-17.676-.143-26.519.1-26.935-1.75-53.775-3.575-80.63-3.223-47.436-9.047-94.607-13.823-141.885-.929-9.196-.998-18.499-1.255-27.71-.653-23.382-3.12-46.583-5.62-69.772-2.862-26.558-5.153-53.204-9.838-79.543-5.32-29.91-12.271-59.378-23.763-87.613-10.276-25.247-26.484-45.798-49.027-61.169-23.961-16.338-49.889-28.66-77.127-38.656-23.802-8.735-48.862-12.818-72.718-21.146-4.19-1.463-5.554.836-7.066,3.977-6.702,13.92-14.053,27.693-26.046,37.672-26.915,22.395-56.54,39.322-93.035,38.182-18.632-.582-36.6-5.745-53.943-12.437-23.032-8.888-45.627-18.624-63.619-36.495-9.641-9.576-17.822-20.16-24.525-31.92-1.492-2.617-2.273-5.477-.56-8.395.875-1.275,2.533-1.669,3.419-2.947-.933.94-2.17,1.429-3.253,2.163-15.412,6.264-31.578,10.695-46.455,18.14-33.685,16.857-68.441,31.463-101.314,50.07-39.307,22.248-64.15,55.51-78.717,97.388-9.311,26.767-14.288,54.502-18.737,82.405-6.429,40.325-12.368,80.726-19.607,120.929-3.233,17.958-3.09,36.453-5.975,54.541-6.401,40.132-8.605,80.711-13.013,121.055-3.669,33.589-1.864,67.278-2.446,100.925-.126,7.265.037,14.675-3.049,21.568-5.285.129-5.228.129-5.248-4.534-.02-4.766.731-9.525.124-14.295.693-17.042,1.101-34.092.888-51.148-.338-27.002,1.987-53.811,5.14-80.602,2.557-21.732,4.114-43.581,6.546-65.329,2.033-18.185,4.76-36.291,7.042-54.449,1.049-8.347,1.639-16.752,2.663-25.102,2.51-20.468,6.809-40.655,9.803-61.046,3.788-25.806,7.937-51.552,12.31-77.265,5.055-29.723,11.915-58.917,24.161-86.636,15.775-35.707,39.43-64.329,73.89-83.586,15.237-8.515,30.441-17.027,46.38-24.194,10.73-4.825,21.391-9.829,31.893-15.128,25.985-13.111,53.125-23.221,81.12-30.951,7.406-2.045,12.066-6.083,15.391-12.597,4.01-7.856,5.597-16.234,6.094-24.918.763-13.316-1.105-26.429-2.7-39.596-1.125-9.29-4.719-17.827-6.957-26.765-3.276-13.087-4.721-26.491-6.457-39.832-.429-3.3-1.299-4.381-4.985-4.469-8.869-.211-15.384-5.071-19.959-12.469-2.674-4.324-4.115-9.192-5.353-14.099-3.086-12.237-5.779-24.554-7.081-37.125-.302-2.913-.442-5.914-.1-8.809,1.078-9.133,4.732-14.215,13.422-19.276-4.673-10.764-9.366-21.533-14.025-32.317-6.972-16.135-9.821-32.974-8.569-50.508.511-7.162,1.978-14.159,3.912-21.042,3.579-12.742,7.684-25.347,10.918-38.173,3.907-15.494,13.393-25.329,28.339-30.263,18.763-6.194,37.333-12.908,54.997-21.83,10.934-5.523,22.337-9.579,34.099-12.932,13.071-3.726,25.738-3.313,38.287,1.797,5.446,2.218,10.963,4.283,16.31,6.72,13.952,6.359,28.72,9.349,43.834,11.05,6.476.729,12.951,1.448,19.176,3.598,9.55,3.298,16.944,9.142,21.847,18.043,2.231,4.051,4.478,8.095,6.758,12.119,2.961,5.225,6.894,9.552,12.084,12.635,18.441,10.955,25.926,27.745,26.518,48.559.592,20.815-4.064,40.467-12.029,59.487-4.463,10.658-9.591,20.985-16.241,30.524,11.162,5.494,14.727,15.504,15.319,26.202,1.11,20.061-3.764,38.798-15.765,55.298-2.743,3.771-6.097,6.958-9.904,9.666-4.578,3.256-9.455,4.442-14.91,2.272-1.557.709-1.568,2.286-1.91,3.682-.4,1.632-.632,3.323-1.199,4.894-5.657,15.703-6.014,32.082-6.389,48.485-.38,16.623-.991,33.241-1.446,49.863-.247,9.019,2.117,17.523,5.74,25.649,5.218,11.704,14.491,19.057,26.581,22.494,18.17,5.165,36.194,10.763,54.566,15.345,39.961,9.967,77.905,25.225,112.533,48.009,27.9,18.357,47.066,43.414,58.275,74.787,10.934,30.603,18.47,62.031,22.962,94.173,5.591,40.009,9.866,80.166,12.929,120.455,1.26,16.574,1.733,33.185,3.092,49.759,1.652,20.138,4.016,40.198,5.825,60.317,1.677,18.647,4.053,37.234,5.613,55.89,3.843,45.967,5.735,92.023,5.421,138.159-.026,3.789-.125,7.577-.189,11.366Z" style="fill: #010101;"/>
          <path d="M592.44,1680.927c2.219-27.088,1.268-54.229,1.378-81.352.072-17.862,1.561-35.621,3.553-53.36,1.17-10.416,1.665-20.909,2.888-31.318,1.223-10.407,1.605-20.894,3.31-31.257.849-5.159.978-10.46,1.309-15.664.71-11.15,3.511-21.943,4.651-32.996.903-8.752,2.547-17.448,3.052-26.215,1.016-17.629,3.594-34.991,6.966-52.305,2.843-14.594,5.379-29.249,7.321-44.018,2.266-17.233,5.573-34.326,8.096-51.529,2.222-15.15,4.755-30.235,8.167-45.157,5.308-23.21,12.183-45.904,23.562-66.973,8.734-16.171,19.022-31.25,32.609-43.807,10.233-9.457,21.815-17.081,33.755-24.191,20.453-12.178,41.918-22.327,63.611-32.053,8.249-3.698,16.241-7.973,24.326-12.034,18.643-9.364,38.212-16.408,57.883-23.203,1.41-.487,2.792-.917,4.293-.867.39.281.516.557.381.829-.134.27-.267.405-.4.405-2.114,3.116-1.076,6.054.626,8.86,4.691,7.734,9.719,15.229,15.667,22.081,15.781,18.18,35.414,30.556,57.598,39.57,16.8,6.826,33.867,12.279,51.643,15.954,19.398,4.011,38.079,1.912,56.263-5.005,15.985-6.081,30.667-14.735,44.423-24.92,9.969-7.381,17.551-16.876,23.919-27.372,3.919-6.459,7.976-12.912,10.171-20.224.724-2.411,1.785-2.243,3.671-1.626,7.986,2.609,15.852,5.97,24.052,7.459,19.971,3.627,38.971,10.379,57.95,17.099,28.489,10.087,55.34,23.647,79.398,42.072,20.148,15.43,34.285,35.573,43.48,59.233,9.85,25.343,16.519,51.545,21.444,78.228,3.502,18.975,5.98,38.083,7.79,57.298,1.238,13.137,3.313,26.194,4.666,39.322,1.183,11.473,1.78,23.005,2.816,34.495,1.546,17.157,1.831,34.37,2.654,51.56.469,9.807,2.235,19.548,3.276,29.334,1.043,9.801,1.858,19.626,2.868,29.43,1.052,10.214,2.186,20.42,3.345,30.622.568,5,1.094,10.038,1.412,15.023.814,12.777,2.353,25.485,3.059,38.279.867,15.719,1.634,31.448,2.627,47.151.798,12.622.909,25.214.892,37.813-.02,15.15.7,30.261,1.325,45.382-44.29.039-88.58.063-132.87.131-8.388.013-16.777.199-25.165.306,0,0,.036-.541.036-.541-2.808-5.298-.537-10.731-.194-16.034,1.17-18.086.936-36.132.048-54.225-.802-16.349-2.444-32.618-1.062-49.138,1.38-16.509.994-33.194-.255-49.819-1.728-23.001-.279-46.003,4.662-68.443,7.991-36.291,11.398-73.17,16.002-109.906,1.124-8.967.68-18.062,1.127-27.092.749-15.131,2.037-30.203,3.059-45.309-5.102,45.259-6.616,90.859-12.878,136.005-2.259,16.287-6.466,32.19-9.523,48.321-2.633,13.893-4.279,27.83-4.166,42.011.196,24.629.68,49.281-.12,73.886-.815,25.074,1.631,49.954,2.381,74.926.415,13.82-.861,27.725-2.525,41.515-.154,1.279-.704,2.416-1.635,3.34,0,0,.036.529.035.529-2.516-.115-5.031-.331-7.547-.332-164.321-.016-328.643-.016-492.964,0-2.516,0-5.033.202-7.549.31,0,0,.039-.541.039-.541-1.866-2.273-1.002-4.83-.661-7.276,6.24-44.813,12.812-89.651,15.797-134.767,2.115-31.962,7.023-63.566,9.229-95.455,1.442-20.847-.569-41.624-2.855-62.345-3.781-34.267-8.686-68.386-13.666-102.495,5.302,37.672,9.67,75.456,13.931,113.256,3.593,31.879,1.008,63.443-3.884,94.94-2.88,18.538-3.452,37.259-4.695,55.934-1.16,17.436-3.678,34.739-6.109,52.032-3.663,26.051-5.508,52.334-10.085,78.266-.512,2.9-.544,5.939-3.327,7.85,0,0,.022.564.022.564-2.511-.096-5.022-.274-7.533-.275-41.976-.017-83.951-.009-125.927-.019-2.305,0-4.611-.108-6.916-.166Z" style="fill: #4e4534;"/>
          <path d="M732.794,1680.823c1.676-10.765,3.452-21.515,5.003-32.298,1.879-13.07,2.764-26.258,4.721-39.33,1.708-11.401,2.804-22.892,4.224-34.337,1.084-8.735,2.375-17.445,3.343-26.192.855-7.722,1.031-15.526,1.328-23.262.615-15.99,2.796-31.741,5.012-47.533,3.245-23.123,5.731-46.365,3.884-69.721-1.155-14.611-2.498-29.231-4.524-43.783-2.197-15.776-3.537-31.67-5.448-47.488-1.356-11.231-3.173-22.406-4.501-33.64-.462-3.905-.074-7.911-.074-12.514,3.212,3.074,2.752,6.869,3.268,10.073,2.701,16.758,5.178,33.554,7.504,50.369,1.58,11.421,2.551,22.928,4.211,34.336,2.176,14.956,3.481,30.014,4.543,45.048.9,12.744.953,25.602-.524,38.434-1.079,9.368-1.738,18.796-2.904,28.165-1.087,8.736-2.321,17.456-3.259,26.208-.76,7.091-1.562,14.213-1.665,21.331-.215,14.939-1.92,29.716-3.611,44.529-1.331,11.667-2.43,23.362-4.108,34.987-2.815,19.505-4.127,39.193-7.28,58.665-.97,5.992-1.99,11.991-2.82,18.013-2.112.322-4.221.35-6.326-.06Z" style="fill: #010101;"/>
          <path d="M1247.107,1680.917c.76-11.931,1.56-23.859,2.253-35.794.195-3.356.306-6.747.062-10.094-1.098-15.075-1.499-30.197-2.648-45.251-.581-7.617.21-15.05.221-22.566.04-26.097.196-52.197-.069-78.291-.176-17.33,2.247-34.299,5.684-51.19,2.675-13.143,5.7-26.226,7.922-39.444,1.56-9.284,1.97-18.759,3.007-28.136.967-8.747,2.13-17.472,3.121-26.216.708-6.246,1.822-12.511,1.786-18.762-.067-11.583.955-23.099,1.644-34.62.624-10.437,2.35-20.819,3.885-31.182.327-2.207.484-5.073,3.393-6.35,0,4.975.558,9.723-.103,14.295-2.136,14.781-1.842,29.722-3.334,44.538-.399,3.964-.191,7.991-.212,11.99-.057,11.156-1.849,22.13-3.344,33.143-1.128,8.305-2.295,16.629-2.842,24.984-.976,14.918-3.932,29.502-6.851,44.089-3.375,16.863-6.54,33.686-7.613,50.945-.667,10.731-1.32,21.481-.535,32.106,1.15,15.567.527,31.103.894,46.647.111,4.67-1.008,9.184-1.115,13.796-.341,14.717,1.378,29.342,1.998,44.008.727,17.194,1.398,34.45-.56,51.67-.591,5.197-.904,10.443-1.567,15.645-1.693.013-3.386.026-5.079.039Z" style="fill: #010101;"/>
          <path d="M1111.524,773.322c-.217,23.988-1.015,47.956-3.297,71.85-1.592,16.662-6.661,32.49-12.097,48.193-2.818,8.141-5.838,16.225-9.61,23.988-13.605,27.999-35.301,45.396-66.262,50.957-23.245,4.175-45.185,1.081-65.857-10.525-6.798-3.816-13.367-7.945-19.656-12.567-17.286-12.705-27.829-29.421-31.272-50.707-4.804-29.7-9.971-59.358-10.93-89.508-.942-29.628,2.322-58.709,10.759-87.287,5.682-19.244,17.581-30.384,37.277-33.772,21.781-3.747,43.556-7.242,65.727-7.814,12.225-.315,24.168-3.136,36.188-5.212,9.139-1.579,18.307-2.314,27.628-.988,15.154,2.155,25.662,10.053,30.984,24.38,4.185,11.267,6.852,22.959,8.282,34.905,1.753,14.648,2.473,29.351,2.136,44.107Z" style="fill: #fdcdaf;"/>
          <path d="M1114.635,795.543c-.329-8.817,1.859-17.526,1.064-26.372-1.143-12.719-1.242-25.497-2.277-38.24-1.081-13.304-3.949-26.081-8.251-38.578-4.644-13.49-14.132-22.232-27.922-25.76-9.654-2.47-19.555-2.169-29.356-.49-12.156,2.082-24.254,4.522-36.441,6.385-4.532.693-9.26.447-13.874.189-11.615-.649-23.018,1.271-34.407,2.86-9.088,1.268-18.242,2.422-27.155,4.793-5.297,1.409-10.311,3.558-15.261,5.86-8.311,3.865-13.413,10.926-16.868,18.862-6.042,13.88-9.424,28.594-11.969,43.517-2.651,15.54-3.743,31.172-3.701,46.91.002.768.235,1.614-.817,2.624-2.6-3.94-3.667-8.479-5.114-12.653-6.134-17.696-14.391-34.473-21.682-51.665-7.089-16.716-10.3-34.129-8.884-52.233.604-7.725,2.979-15.191,5.129-22.627,3.669-12.691,7.705-25.278,11.255-38.002,3.054-10.947,10.696-17.376,20.606-21.355,10.317-4.142,20.932-7.536,31.353-11.428,8.657-3.233,17.187-6.791,25.424-11.012,13.713-7.028,28.078-12.367,43.236-15.069,9.389-1.673,18.803-.865,27.811,2.957,10.432,4.426,20.759,9.147,31.591,12.553,9.212,2.897,18.696,4.395,28.285,5.541,8.484,1.014,17.052,1.827,24.912,5.917,6.95,3.616,12.303,8.578,15.736,15.635,1.471,3.024,3.184,5.929,4.665,8.949,4.362,8.894,12.324,14.1,19.965,19.649,10.61,7.705,16.301,18.25,18.326,31.087.755,4.791,1.18,9.539,1.204,14.381.093,18.802-4.912,36.404-12.083,53.574-5.039,12.064-11.738,23.12-18.576,34.237-5.661,9.204-11.59,18.51-15.03,28.973l-.433.407-.459-.377Z" style="fill: #1f120c;"/>
          <path d="M913.363,930.666c16.73,20.257,37.961,33.673,63.152,40.623,22.299,6.152,44.305,3.403,65.655-4.473,14.552-5.368,26.075-15.168,35.615-27.329,8.404-10.713,14.088-22.873,19.003-35.45,3.123.308,1.483,2.371,1.419,3.852-.767,18.294-1.686,36.584-2.244,54.885-.338,11.098,1.918,21.776,7.07,31.698,5.06,9.746,12.946,16.432,23.008,20.644,1.163.487,2.364.883,3.554,1.301,10.668,3.74,10.576,3.692,5.309,14.123-10.063,19.929-24.546,35.52-44.305,46.167-11.482,6.187-22.786,12.667-35.361,16.535-18.522,5.697-36.868,4.298-55.447-.114-20.606-4.894-40.208-12.448-59.052-21.768-22.432-11.095-39.667-28.189-52.515-49.654-2.787-4.657-2.763-4.851,2.064-7.625,14.998-8.621,21.727-22.039,23.532-38.777,1.53-14.19-.182-28.143-1.76-42.149-.335-1.232-1.138-2.709,1.304-2.486Z" style="fill: #fdcdaf;"/>
          <path d="M1147.426,797.588c-.279,11.868-2.545,23.322-7.58,34.132-3.698,7.94-8.825,14.754-16.28,19.603-2.502,1.628-5.113,2.964-8.236,2.447-2.317-.384-4.021-1.426-3.518-4.177,2.495-13.647.241-27.691,3.77-41.296,3.419-13.18,9.241-25.143,16.616-36.468,1.518-2.331,3.267-2.32,5.322-1.002,2.557,1.64,4.208,4.109,5.636,6.679,3.463,6.235,4.605,13.001,4.269,20.082Z" style="fill: #fdcdaf;"/>
          <path d="M860.41,790.908c-.144-3.642.374-7.176,1.434-10.607,1.01-3.27,2.726-6.137,5.537-8.229,3.694-2.749,4.616-2.602,6.284,1.633,4.848,12.302,9.588,24.647,14.333,36.989.756,1.966,1.062,4.028,1.145,6.162.452,11.561,1.903,23.023,3.563,34.463.531,3.658.161,4.137-3.47,3.744-6.146-.666-11.123-3.543-14.944-8.403-1.703-2.166-3.019-4.566-3.909-7.162-5.405-15.774-8.27-32.068-9.975-48.589Z" style="fill: #fdcdaf;"/>
          <path d="M1098.207,907.889c-.807-1.161.339-3.042-1.419-3.852-.072-1.756.568-3.133,2.182-4.215.543,2.902.607,5.55-.763,8.067Z" style="fill: #80736a;"/>
          <path d="M883.151,1013.862c-.007-.412,0-.823.019-1.234.98-1.324,2.273-2.058,4.496-2.188-.879,2.399-3.062,2.476-4.515,3.423Z" style="fill: #282b27;"/>
          <path d="M913.363,930.666c-1.093.483-.8,1.694-1.304,2.486-.343-.719-.859-1.41-.982-2.165-.137-.844-.788-2.23.562-2.435,1.057-.161,1.473,1.12,1.724,2.114Z" style="fill: #8b7f70;"/>
          <path d="M1114.635,795.543c.296-.056.594-.066.892-.03-.109.623.571,1.542-.656,1.744-.079-.571-.158-1.142-.236-1.713Z" style="fill: #545959;"/>
          <path d="M888.594,800.808c-.013.14.025.35-.05.404-.126.092-.361.164-.484.106-.518-.244-.494-.516.06-.671.132-.037.315.103.474.161Z" style="fill: #232828;"/>
        </g>
      </g>
    </g>
  </g>
</svg>